<?xml version="1.0" encoding="UTF-8"?>
<svg xmlns="http://www.w3.org/2000/svg" xmlns="http://www.w3.org/2000/svg" viewBox="-16.2803 21.5361 96.5607 48.4249" width="96.5607" height="48.4249"><defs> 
      
     <linearGradient id="isoBaseTop" x1="0%" y1="0%" x2="100%" y2="100%"> 
       <stop offset="0%" stop-color="#475569" /><stop offset="100%" stop-color="#334155" /> 
     </linearGradient> 
     <linearGradient id="isoBaseRight" x1="0%" y1="0%" x2="0%" y2="100%"> 
       <stop offset="0%" stop-color="#1e293b" /><stop offset="100%" stop-color="#0f172a" /> 
     </linearGradient> 

      
     <linearGradient id="skin" x1="0%" y1="0%" x2="100%" y2="100%"> 
       <stop offset="0%" stop-color="#fed7aa" /><stop offset="100%" stop-color="#fdba74" /> 
     </linearGradient> 
     <linearGradient id="hairDark" x1="0%" y1="0%" x2="0%" y2="100%"> 
       <stop offset="0%" stop-color="#451a03" /><stop offset="100%" stop-color="#180e04" /> 
     </linearGradient> 
     <linearGradient id="hairGrey" x1="0%" y1="0%" x2="0%" y2="100%"> 
       <stop offset="0%" stop-color="#94a3b8" /><stop offset="100%" stop-color="#475569" /> 
     </linearGradient> 

      
     <linearGradient id="jesusWhite" x1="0%" y1="0%" x2="100%" y2="100%"> 
       <stop offset="0%" stop-color="#ffffff" /><stop offset="100%" stop-color="#cbd5e1" /> 
     </linearGradient> 
     <linearGradient id="jesusRed" x1="0%" y1="0%" x2="100%" y2="100%"> 
       <stop offset="0%" stop-color="#f87171" /><stop offset="100%" stop-color="#991b1b" /> 
     </linearGradient> 
     <linearGradient id="gold" x1="0%" y1="0%" x2="100%" y2="100%"> 
       <stop offset="0%" stop-color="#fde047" /><stop offset="100%" stop-color="#ca8a04" /> 
     </linearGradient> 
      
     <linearGradient id="blueRobe" x1="0%" y1="0%" x2="100%" y2="100%"> 
       <stop offset="0%" stop-color="#38bdf8" /><stop offset="100%" stop-color="#0369a1" /> 
     </linearGradient> 
     <linearGradient id="greenRobe" x1="0%" y1="0%" x2="100%" y2="100%"> 
       <stop offset="0%" stop-color="#4ade80" /><stop offset="100%" stop-color="#15803d" /> 
     </linearGradient> 
     <linearGradient id="purpleRobe" x1="0%" y1="0%" x2="100%" y2="100%"> 
       <stop offset="0%" stop-color="#c084fc" /><stop offset="100%" stop-color="#6b21a8" /> 
     </linearGradient> 
     <linearGradient id="orangeRobe" x1="0%" y1="0%" x2="100%" y2="100%"> 
       <stop offset="0%" stop-color="#fb923c" /><stop offset="100%" stop-color="#c2410c" /> 
     </linearGradient> 
     <linearGradient id="tealRobe" x1="0%" y1="0%" x2="100%" y2="100%"> 
       <stop offset="0%" stop-color="#2dd4bf" /><stop offset="100%" stop-color="#0f766e" /> 
     </linearGradient> 
     <linearGradient id="brownRobe" x1="0%" y1="0%" x2="100%" y2="100%"> 
       <stop offset="0%" stop-color="#a16207" /><stop offset="100%" stop-color="#451a03" /> 
     </linearGradient> 

      
     <g id="iso-tile"> 
       <polygon points="32,63 49,54.5 32,46 15,54.5" fill="#000000" opacity="0.25" /> 
       <polygon points="17,55 32,62.5 32,60.5 17,53" fill="#334155" /> 
       <polygon points="32,62.5 47,55 47,53 32,60.5" fill="#162032" /> 
       <polygon points="17,53 32,60.5 47,53 32,45.5" fill="#64748b" /> 
       <polygon points="18,52.5 32,59.5 46,52.5 32,45.5" fill="#3d4b5f" /> 
       <polygon points="21,52 32,57.5 43,52 32,46.5" fill="#1e293b" /> 
     </g> 

     <g id="chibi-head"> 
        
       <path d="M 32 30 L 38 33 L 32 36 L 26 33 Z" fill="#fdc88f" /> 
       <path d="M 26 33 L 32 36 L 32 41 L 26 38 Z" fill="#fdc88f" /> 
       <path d="M 32 36 L 38 33 L 38 38 L 32 41 Z" fill="#fdc88f" /> 
        
       <circle cx="30.5" cy="37.8" r="0.8" fill="#0f172a" /> 
       <circle cx="33.5" cy="37.8" r="0.8" fill="#0f172a" /> 
       <circle cx="30.7" cy="37.6" r="0.3" fill="#ffffff" /> 
       <circle cx="33.7" cy="37.6" r="0.3" fill="#ffffff" /> 
     </g> 
   </defs><g transform="translate(0, 4)"><g> 
      
     <polygon points="32,64 52,54 32,44 12,54" fill="#e3b525" opacity="0.4" /> 
     <use href="#iso-tile" /> 
      
     <path d="M 27 40 L 32 42.5 L 32 48 C 28 48, 27 44, 27 40 Z" fill="#e5eaf0" /> 
     <path d="M 32 42.5 L 37 40 L 37 45 C 37 48, 32 48, 32 48 Z" fill="#c84646" /> 
      
     <path d="M 24 32 C 24 24, 40 24, 40 32 L 39 42 L 25 42 Z" fill="#2e1403" /> 
     <path d="M 28 38 L 32 43 L 36 38 Z" fill="#2e1403" /> 
     <use href="#chibi-head" /> 
      
     <ellipse cx="32" cy="24" rx="9" ry="3.5" fill="none" stroke="#e3b525" stroke-width="1.8" /> 
     <ellipse cx="32" cy="24" rx="7" ry="2.5" fill="#e3b525" opacity="0.3" /> 
   </g></g></svg>